<?xml version="1.0" encoding="utf-8"?>
<!-- Generator: Adobe Illustrator 16.0.0, SVG Export Plug-In . SVG Version: 6.00 Build 0)  -->
<!DOCTYPE svg PUBLIC "-//W3C//DTD SVG 1.1//EN" "http://www.w3.org/Graphics/SVG/1.1/DTD/svg11.dtd">
<svg version="1.1" id="Layer_1" xmlns="http://www.w3.org/2000/svg" xmlns:xlink="http://www.w3.org/1999/xlink" x="0px" y="0px"
	 width="59.5px" height="34.5px" viewBox="23.833 15.5 59.5 34.5" enable-background="new 23.833 15.5 59.5 34.5"
	 xml:space="preserve">
<path fill="#FFFFFF" d="M82.268,32.641l-5.385-4.451v3.028H58.797l9.689-9.201v5.735h3.633v-6.221c0-2.673-2.176-4.849-4.852-4.849
	H29.91c-2.673,0-4.849,2.176-4.849,4.849v22.021c0,2.674,2.176,4.85,4.849,4.85h37.36c2.675,0,4.851-2.176,4.851-4.85v-5.831h-3.633
	v5.831c0,0.671-0.546,1.217-1.218,1.217H29.91c-0.669,0-1.217-0.545-1.217-1.217V22.092l18.85,17.837
	c0.293,0.277,0.667,0.415,1.04,0.415c0.376,0,0.751-0.139,1.043-0.417l5.982-5.681h21.275v2.846L82.268,32.641z M48.582,36.744
	l-17.36-16.429h34.659L48.582,36.744z"/>
</svg>
